<svg width="256" height="256" viewBox="0 0 256 256" fill="none" xmlns="http://www.w3.org/2000/svg">
<rect width="256" height="256" fill="#9124FF"/>
<path d="M165.703 65C161.498 65 157.866 67.8909 156.894 71.9389C147.925 67.3349 138.248 65 128.13 65C93.3198 65 65 93.3198 65 128.13C65 162.939 93.3198 191.259 128.13 191.259C138.252 191.259 147.933 188.924 156.902 184.316C157.895 188.331 161.523 191.206 165.703 191.206L191.255 191.197V65H165.703ZM164.492 162.256C163.87 163.335 162.548 163.767 161.428 163.306L161.342 163.269C155.309 160.983 148.856 159.781 142.024 159.781C139.306 159.781 136.753 159.962 134.142 160.345C134.142 160.345 130.143 160.893 128.134 160.893C110.064 160.893 95.4118 146.245 95.4118 128.171C95.4118 110.097 110.06 95.4488 128.134 95.4488C146.208 95.4488 160.856 110.097 160.856 128.171C160.856 129.781 160.74 131.362 160.514 132.911H160.518C160.226 135.064 160.077 137.263 160.077 139.5C160.077 146.817 161.696 153.764 164.599 159.987C164.978 160.773 164.908 161.531 164.492 162.256Z" fill="white"/>
</svg>
